<mxfile host="app.diagrams.net" modified="2022-10-22T16:59:54.602Z" agent="5.0 (Windows NT 10.0; Win64; x64) AppleWebKit/537.36 (KHTML, like Gecko) Chrome/104.0.5112.81 Safari/537.36" etag="czLVibCKUtx8uF8JUl7M" version="20.5.0" type="github">
  <diagram id="nApc--qrVaFKiWbex1Wd" name="Page-1">
    <mxGraphModel dx="1298" dy="719" grid="1" gridSize="10" guides="1" tooltips="1" connect="1" arrows="1" fold="1" page="1" pageScale="1" pageWidth="850" pageHeight="1100" math="0" shadow="0">
      <root>
        <mxCell id="0" />
        <mxCell id="1" parent="0" />
        <mxCell id="zeBjeRSk8NrVJ0DOL0eV-1" value="" style="ellipse;html=1;shape=startState;fillColor=#000000;strokeColor=#ff0000;" vertex="1" parent="1">
          <mxGeometry x="410" width="30" height="30" as="geometry" />
        </mxCell>
        <mxCell id="zeBjeRSk8NrVJ0DOL0eV-2" value="" style="edgeStyle=orthogonalEdgeStyle;html=1;verticalAlign=bottom;endArrow=open;endSize=8;strokeColor=#ff0000;rounded=0;" edge="1" source="zeBjeRSk8NrVJ0DOL0eV-1" parent="1">
          <mxGeometry relative="1" as="geometry">
            <mxPoint x="425" y="90" as="targetPoint" />
          </mxGeometry>
        </mxCell>
        <mxCell id="zeBjeRSk8NrVJ0DOL0eV-3" value="Processing of payment" style="rounded=1;whiteSpace=wrap;html=1;arcSize=40;fontColor=#000000;fillColor=#ffffc0;strokeColor=#ff0000;" vertex="1" parent="1">
          <mxGeometry x="365" y="90" width="120" height="40" as="geometry" />
        </mxCell>
        <mxCell id="zeBjeRSk8NrVJ0DOL0eV-4" value="" style="edgeStyle=orthogonalEdgeStyle;html=1;verticalAlign=bottom;endArrow=open;endSize=8;strokeColor=#ff0000;rounded=0;" edge="1" source="zeBjeRSk8NrVJ0DOL0eV-3" parent="1">
          <mxGeometry relative="1" as="geometry">
            <mxPoint x="425" y="190" as="targetPoint" />
          </mxGeometry>
        </mxCell>
        <mxCell id="zeBjeRSk8NrVJ0DOL0eV-5" value="Success" style="rhombus;whiteSpace=wrap;html=1;fillColor=#ffffc0;strokeColor=#ff0000;" vertex="1" parent="1">
          <mxGeometry x="385" y="190" width="80" height="40" as="geometry" />
        </mxCell>
        <mxCell id="zeBjeRSk8NrVJ0DOL0eV-6" value="no" style="edgeStyle=orthogonalEdgeStyle;html=1;align=left;verticalAlign=bottom;endArrow=open;endSize=8;strokeColor=#ff0000;rounded=0;entryX=1;entryY=0.5;entryDx=0;entryDy=0;" edge="1" source="zeBjeRSk8NrVJ0DOL0eV-5" parent="1" target="zeBjeRSk8NrVJ0DOL0eV-1">
          <mxGeometry x="-1" relative="1" as="geometry">
            <mxPoint x="560" y="10" as="targetPoint" />
            <Array as="points">
              <mxPoint x="580" y="210" />
              <mxPoint x="580" y="15" />
            </Array>
          </mxGeometry>
        </mxCell>
        <mxCell id="zeBjeRSk8NrVJ0DOL0eV-7" value="yes" style="edgeStyle=orthogonalEdgeStyle;html=1;align=left;verticalAlign=top;endArrow=open;endSize=8;strokeColor=#ff0000;rounded=0;" edge="1" source="zeBjeRSk8NrVJ0DOL0eV-5" parent="1">
          <mxGeometry x="-1" relative="1" as="geometry">
            <mxPoint x="425" y="290" as="targetPoint" />
          </mxGeometry>
        </mxCell>
        <mxCell id="zeBjeRSk8NrVJ0DOL0eV-8" value="Send order to restaurant" style="rounded=1;whiteSpace=wrap;html=1;arcSize=40;fontColor=#000000;fillColor=#ffffc0;strokeColor=#ff0000;" vertex="1" parent="1">
          <mxGeometry x="365" y="270" width="120" height="40" as="geometry" />
        </mxCell>
        <mxCell id="zeBjeRSk8NrVJ0DOL0eV-9" value="" style="edgeStyle=orthogonalEdgeStyle;html=1;verticalAlign=bottom;endArrow=open;endSize=8;strokeColor=#ff0000;rounded=0;" edge="1" source="zeBjeRSk8NrVJ0DOL0eV-8" parent="1">
          <mxGeometry relative="1" as="geometry">
            <mxPoint x="425" y="370" as="targetPoint" />
          </mxGeometry>
        </mxCell>
        <mxCell id="zeBjeRSk8NrVJ0DOL0eV-10" value="Send info to user" style="rounded=1;whiteSpace=wrap;html=1;arcSize=40;fontColor=#000000;fillColor=#ffffc0;strokeColor=#ff0000;" vertex="1" parent="1">
          <mxGeometry x="365" y="370" width="120" height="40" as="geometry" />
        </mxCell>
        <mxCell id="zeBjeRSk8NrVJ0DOL0eV-11" value="" style="edgeStyle=orthogonalEdgeStyle;html=1;verticalAlign=bottom;endArrow=open;endSize=8;strokeColor=#ff0000;rounded=0;" edge="1" source="zeBjeRSk8NrVJ0DOL0eV-10" parent="1">
          <mxGeometry relative="1" as="geometry">
            <mxPoint x="425" y="470" as="targetPoint" />
          </mxGeometry>
        </mxCell>
        <mxCell id="zeBjeRSk8NrVJ0DOL0eV-12" value="&lt;div style=&quot;text-align: left;&quot;&gt;&lt;span style=&quot;background-color: initial;&quot;&gt;Wait for receiving&lt;/span&gt;&lt;/div&gt;" style="rounded=1;whiteSpace=wrap;html=1;arcSize=40;fontColor=#000000;fillColor=#ffffc0;strokeColor=#ff0000;" vertex="1" parent="1">
          <mxGeometry x="365" y="470" width="120" height="40" as="geometry" />
        </mxCell>
        <mxCell id="zeBjeRSk8NrVJ0DOL0eV-13" value="" style="edgeStyle=orthogonalEdgeStyle;html=1;verticalAlign=bottom;endArrow=open;endSize=8;strokeColor=#ff0000;rounded=0;" edge="1" source="zeBjeRSk8NrVJ0DOL0eV-12" parent="1">
          <mxGeometry relative="1" as="geometry">
            <mxPoint x="425" y="570" as="targetPoint" />
          </mxGeometry>
        </mxCell>
        <mxCell id="zeBjeRSk8NrVJ0DOL0eV-14" value="" style="ellipse;html=1;shape=endState;fillColor=#000000;strokeColor=#ff0000;" vertex="1" parent="1">
          <mxGeometry x="410" y="570" width="30" height="30" as="geometry" />
        </mxCell>
      </root>
    </mxGraphModel>
  </diagram>
</mxfile>
